<mxfile host="app.diagrams.net" agent="Mozilla/5.0 (X11; Linux x86_64) AppleWebKit/537.36 (KHTML, like Gecko) Chrome/130.0.0.0 Safari/537.36" version="28.2.4">
  <diagram name="第 1 页" id="6vYx6AYXL00y4gDIRR1h">
    <mxGraphModel dx="1248" dy="700" grid="1" gridSize="10" guides="1" tooltips="1" connect="1" arrows="1" fold="1" page="1" pageScale="1" pageWidth="827" pageHeight="1169" math="0" shadow="0">
      <root>
        <mxCell id="0" />
        <mxCell id="1" parent="0" />
        <mxCell id="aQ876fvYmltKhp7W16am-1" value="" style="group" parent="1" connectable="0" vertex="1">
          <mxGeometry x="230" y="190" width="750" height="410" as="geometry" />
        </mxCell>
        <mxCell id="aQ876fvYmltKhp7W16am-2" value="" style="rounded=0;whiteSpace=wrap;html=1;container=0;" parent="aQ876fvYmltKhp7W16am-1" vertex="1">
          <mxGeometry width="205" height="80" as="geometry" />
        </mxCell>
        <mxCell id="aQ876fvYmltKhp7W16am-3" value="&lt;font style=&quot;font-size: 9px;&quot;&gt;NCCL&lt;/font&gt;" style="rounded=0;whiteSpace=wrap;html=1;strokeWidth=0;container=0;" parent="aQ876fvYmltKhp7W16am-1" vertex="1">
          <mxGeometry x="20" y="20" width="50" height="20" as="geometry" />
        </mxCell>
        <mxCell id="aQ876fvYmltKhp7W16am-4" value="&lt;font style=&quot;font-size: 9px;&quot;&gt;MSCCL&lt;/font&gt;" style="rounded=0;whiteSpace=wrap;html=1;strokeWidth=0;container=0;" parent="aQ876fvYmltKhp7W16am-1" vertex="1">
          <mxGeometry x="140" y="20" width="50" height="20" as="geometry" />
        </mxCell>
        <mxCell id="aQ876fvYmltKhp7W16am-5" value="&lt;font style=&quot;font-size: 9px;&quot;&gt;RCCL&lt;/font&gt;" style="rounded=0;whiteSpace=wrap;html=1;strokeWidth=0;container=0;" parent="aQ876fvYmltKhp7W16am-1" vertex="1">
          <mxGeometry x="80" y="20" width="50" height="20" as="geometry" />
        </mxCell>
        <mxCell id="aQ876fvYmltKhp7W16am-6" value="&lt;font style=&quot;font-size: 9px;&quot;&gt;oneCCL&lt;/font&gt;" style="rounded=0;whiteSpace=wrap;html=1;strokeWidth=0;container=0;" parent="aQ876fvYmltKhp7W16am-1" vertex="1">
          <mxGeometry x="80" y="50" width="50" height="20" as="geometry" />
        </mxCell>
        <mxCell id="aQ876fvYmltKhp7W16am-7" value="&lt;font style=&quot;font-size: 9px;&quot;&gt;ACCL&lt;/font&gt;" style="rounded=0;whiteSpace=wrap;html=1;strokeWidth=0;container=0;" parent="aQ876fvYmltKhp7W16am-1" vertex="1">
          <mxGeometry x="20" y="50" width="50" height="20" as="geometry" />
        </mxCell>
        <mxCell id="aQ876fvYmltKhp7W16am-8" value="&lt;font style=&quot;font-size: 9px;&quot;&gt;TCCL&lt;/font&gt;" style="rounded=0;whiteSpace=wrap;html=1;fillColor=#d5e8d4;strokeColor=#82b366;strokeWidth=0;container=0;" parent="aQ876fvYmltKhp7W16am-1" vertex="1">
          <mxGeometry x="140" y="50" width="50" height="20" as="geometry" />
        </mxCell>
        <mxCell id="aQ876fvYmltKhp7W16am-9" value="xCCL" style="text;html=1;align=center;verticalAlign=middle;whiteSpace=wrap;rounded=0;container=0;" parent="aQ876fvYmltKhp7W16am-1" vertex="1">
          <mxGeometry x="70" width="60" height="20" as="geometry" />
        </mxCell>
        <mxCell id="aQ876fvYmltKhp7W16am-10" value="" style="rounded=0;whiteSpace=wrap;html=1;container=0;" parent="aQ876fvYmltKhp7W16am-1" vertex="1">
          <mxGeometry y="90" width="205" height="80" as="geometry" />
        </mxCell>
        <mxCell id="aQ876fvYmltKhp7W16am-11" value="&lt;font style=&quot;font-size: 9px;&quot;&gt;All-reduce&lt;/font&gt;" style="rounded=0;whiteSpace=wrap;html=1;strokeWidth=0;container=0;" parent="aQ876fvYmltKhp7W16am-1" vertex="1">
          <mxGeometry x="20" y="110" width="50" height="20" as="geometry" />
        </mxCell>
        <mxCell id="aQ876fvYmltKhp7W16am-12" value="&lt;font style=&quot;font-size: 9px;&quot;&gt;All-to-ALL&lt;/font&gt;" style="rounded=0;whiteSpace=wrap;html=1;strokeWidth=0;container=0;" parent="aQ876fvYmltKhp7W16am-1" vertex="1">
          <mxGeometry x="140" y="110" width="50" height="20" as="geometry" />
        </mxCell>
        <mxCell id="aQ876fvYmltKhp7W16am-13" value="&lt;font style=&quot;font-size: 9px;&quot;&gt;All-Gather&lt;/font&gt;" style="rounded=0;whiteSpace=wrap;html=1;strokeWidth=0;container=0;" parent="aQ876fvYmltKhp7W16am-1" vertex="1">
          <mxGeometry x="80" y="110" width="50" height="20" as="geometry" />
        </mxCell>
        <mxCell id="aQ876fvYmltKhp7W16am-14" value="&lt;font style=&quot;font-size: 9px;&quot;&gt;Reduce-Scater&lt;/font&gt;" style="rounded=0;whiteSpace=wrap;html=1;strokeWidth=0;container=0;" parent="aQ876fvYmltKhp7W16am-1" vertex="1">
          <mxGeometry x="120" y="140" width="70" height="20" as="geometry" />
        </mxCell>
        <mxCell id="aQ876fvYmltKhp7W16am-15" value="&lt;font style=&quot;font-size: 9px;&quot;&gt;BroadCast&lt;/font&gt;" style="rounded=0;whiteSpace=wrap;html=1;strokeWidth=0;container=0;" parent="aQ876fvYmltKhp7W16am-1" vertex="1">
          <mxGeometry x="20" y="140" width="70" height="20" as="geometry" />
        </mxCell>
        <mxCell id="aQ876fvYmltKhp7W16am-16" value="Collective" style="text;html=1;align=center;verticalAlign=middle;whiteSpace=wrap;rounded=0;container=0;" parent="aQ876fvYmltKhp7W16am-1" vertex="1">
          <mxGeometry x="70" y="90" width="60" height="20" as="geometry" />
        </mxCell>
        <mxCell id="aQ876fvYmltKhp7W16am-17" value="" style="rounded=0;whiteSpace=wrap;html=1;container=0;" parent="aQ876fvYmltKhp7W16am-1" vertex="1">
          <mxGeometry y="180" width="205" height="20" as="geometry" />
        </mxCell>
        <mxCell id="aQ876fvYmltKhp7W16am-18" value="P2P Communication" style="text;html=1;align=center;verticalAlign=middle;whiteSpace=wrap;rounded=0;container=0;" parent="aQ876fvYmltKhp7W16am-1" vertex="1">
          <mxGeometry x="20" y="180" width="150" height="20" as="geometry" />
        </mxCell>
        <mxCell id="aQ876fvYmltKhp7W16am-19" value="" style="rounded=0;whiteSpace=wrap;html=1;strokeWidth=0.5;container=0;" parent="aQ876fvYmltKhp7W16am-1" vertex="1">
          <mxGeometry y="270" width="205" height="140" as="geometry" />
        </mxCell>
        <mxCell id="aQ876fvYmltKhp7W16am-20" value="&lt;font style=&quot;font-size: 9px;&quot;&gt;CPU&lt;/font&gt;" style="rounded=0;whiteSpace=wrap;html=1;strokeWidth=0;container=0;" parent="aQ876fvYmltKhp7W16am-1" vertex="1">
          <mxGeometry x="17.5" y="290" width="32.5" height="20" as="geometry" />
        </mxCell>
        <mxCell id="aQ876fvYmltKhp7W16am-21" value="&lt;font style=&quot;font-size: 9px;&quot;&gt;FPGA&lt;/font&gt;" style="rounded=0;whiteSpace=wrap;html=1;strokeWidth=0;container=0;" parent="aQ876fvYmltKhp7W16am-1" vertex="1">
          <mxGeometry x="137.5" y="290" width="50" height="20" as="geometry" />
        </mxCell>
        <mxCell id="aQ876fvYmltKhp7W16am-22" value="&lt;font style=&quot;font-size: 9px;&quot;&gt;GPU/TPU/NPU&lt;/font&gt;" style="rounded=0;whiteSpace=wrap;html=1;strokeWidth=0;container=0;" parent="aQ876fvYmltKhp7W16am-1" vertex="1">
          <mxGeometry x="60" y="290" width="67.5" height="20" as="geometry" />
        </mxCell>
        <mxCell id="aQ876fvYmltKhp7W16am-23" value="Hardware&amp;nbsp;" style="text;html=1;align=center;verticalAlign=middle;whiteSpace=wrap;rounded=0;fillColor=default;strokeWidth=0.5;container=0;" parent="aQ876fvYmltKhp7W16am-1" vertex="1">
          <mxGeometry x="27.5" y="280" width="140" height="10" as="geometry" />
        </mxCell>
        <mxCell id="aQ876fvYmltKhp7W16am-24" style="edgeStyle=orthogonalEdgeStyle;rounded=0;orthogonalLoop=1;jettySize=auto;html=1;exitX=1;exitY=0.5;exitDx=0;exitDy=0;shape=flexArrow;fillColor=#CCCCCC;strokeColor=#CCCCCC;width=9.333333333333334;endSize=8.48;" parent="aQ876fvYmltKhp7W16am-1" source="aQ876fvYmltKhp7W16am-25" edge="1">
          <mxGeometry relative="1" as="geometry">
            <mxPoint x="250" y="234.74193548387098" as="targetPoint" />
          </mxGeometry>
        </mxCell>
        <mxCell id="aQ876fvYmltKhp7W16am-25" value="" style="rounded=0;whiteSpace=wrap;html=1;container=0;" parent="aQ876fvYmltKhp7W16am-1" vertex="1">
          <mxGeometry y="210" width="205" height="50" as="geometry" />
        </mxCell>
        <mxCell id="aQ876fvYmltKhp7W16am-26" value="&lt;font style=&quot;font-size: 9px;&quot;&gt;Ring&lt;/font&gt;" style="rounded=0;whiteSpace=wrap;html=1;strokeWidth=0;fillColor=#ffe6cc;strokeColor=#d79b00;container=0;" parent="aQ876fvYmltKhp7W16am-1" vertex="1">
          <mxGeometry x="20" y="230" width="50" height="20" as="geometry" />
        </mxCell>
        <mxCell id="aQ876fvYmltKhp7W16am-27" value="&lt;font style=&quot;font-size: 9px;&quot;&gt;Fat-Tree&lt;/font&gt;" style="rounded=0;whiteSpace=wrap;html=1;strokeWidth=0;fillColor=#f8cecc;strokeColor=#b85450;container=0;" parent="aQ876fvYmltKhp7W16am-1" vertex="1">
          <mxGeometry x="140" y="230" width="50" height="20" as="geometry" />
        </mxCell>
        <mxCell id="aQ876fvYmltKhp7W16am-28" value="&lt;font style=&quot;font-size: 9px;&quot;&gt;Torus&lt;/font&gt;" style="rounded=0;whiteSpace=wrap;html=1;strokeWidth=0;fillColor=#fff2cc;strokeColor=#d6b656;container=0;" parent="aQ876fvYmltKhp7W16am-1" vertex="1">
          <mxGeometry x="80" y="230" width="50" height="20" as="geometry" />
        </mxCell>
        <mxCell id="aQ876fvYmltKhp7W16am-29" value="Hardware Topology" style="text;html=1;align=center;verticalAlign=middle;whiteSpace=wrap;rounded=0;container=0;" parent="aQ876fvYmltKhp7W16am-1" vertex="1">
          <mxGeometry x="10" y="210" width="170" height="20" as="geometry" />
        </mxCell>
        <mxCell id="aQ876fvYmltKhp7W16am-30" value="" style="rounded=0;whiteSpace=wrap;html=1;strokeWidth=0;container=0;" parent="aQ876fvYmltKhp7W16am-1" vertex="1">
          <mxGeometry x="10" y="320" width="190" height="80" as="geometry" />
        </mxCell>
        <mxCell id="aQ876fvYmltKhp7W16am-31" value="&lt;font style=&quot;font-size: 9px;&quot;&gt;Ethernet&lt;/font&gt;" style="rounded=0;whiteSpace=wrap;html=1;strokeWidth=0;container=0;" parent="aQ876fvYmltKhp7W16am-1" vertex="1">
          <mxGeometry x="37.5" y="345" width="60" height="20" as="geometry" />
        </mxCell>
        <mxCell id="aQ876fvYmltKhp7W16am-32" value="&lt;font style=&quot;font-size: 9px;&quot;&gt;InfiniBand&lt;/font&gt;" style="rounded=0;whiteSpace=wrap;html=1;strokeWidth=0;container=0;" parent="aQ876fvYmltKhp7W16am-1" vertex="1">
          <mxGeometry x="107.5" y="345" width="60" height="20" as="geometry" />
        </mxCell>
        <mxCell id="aQ876fvYmltKhp7W16am-33" value="Highspeed Interconnect" style="text;html=1;align=center;verticalAlign=middle;whiteSpace=wrap;rounded=0;container=0;" parent="aQ876fvYmltKhp7W16am-1" vertex="1">
          <mxGeometry x="15" y="320" width="170" height="20" as="geometry" />
        </mxCell>
        <mxCell id="aQ876fvYmltKhp7W16am-34" value="&lt;font style=&quot;font-size: 9px;&quot;&gt;RoCE&lt;/font&gt;" style="rounded=0;whiteSpace=wrap;html=1;strokeWidth=0;container=0;" parent="aQ876fvYmltKhp7W16am-1" vertex="1">
          <mxGeometry x="37.5" y="375" width="60" height="20" as="geometry" />
        </mxCell>
        <mxCell id="aQ876fvYmltKhp7W16am-35" value="&lt;font style=&quot;font-size: 10px;&quot;&gt;NVLink&lt;/font&gt;" style="rounded=0;whiteSpace=wrap;html=1;strokeWidth=0;container=0;" parent="aQ876fvYmltKhp7W16am-1" vertex="1">
          <mxGeometry x="107.5" y="375" width="60" height="20" as="geometry" />
        </mxCell>
        <mxCell id="aQ876fvYmltKhp7W16am-36" value="" style="rounded=0;whiteSpace=wrap;html=1;container=0;" parent="aQ876fvYmltKhp7W16am-1" vertex="1">
          <mxGeometry x="255" width="410" height="200" as="geometry" />
        </mxCell>
        <mxCell id="aQ876fvYmltKhp7W16am-37" value="Megatron-LM" style="rounded=0;whiteSpace=wrap;html=1;strokeWidth=0;container=0;" parent="aQ876fvYmltKhp7W16am-1" vertex="1">
          <mxGeometry x="280" y="10" width="360" height="20" as="geometry" />
        </mxCell>
        <mxCell id="aQ876fvYmltKhp7W16am-38" value="" style="edgeStyle=orthogonalEdgeStyle;rounded=1;orthogonalLoop=1;jettySize=auto;html=1;curved=0;entryX=0.5;entryY=0;entryDx=0;entryDy=0;" parent="aQ876fvYmltKhp7W16am-1" source="aQ876fvYmltKhp7W16am-39" target="aQ876fvYmltKhp7W16am-40" edge="1">
          <mxGeometry relative="1" as="geometry">
            <mxPoint x="460" y="90" as="targetPoint" />
          </mxGeometry>
        </mxCell>
        <mxCell id="aQ876fvYmltKhp7W16am-39" value="Pytorch/Tensorflow/PaddlePaddle" style="rounded=0;whiteSpace=wrap;html=1;strokeWidth=0;container=0;" parent="aQ876fvYmltKhp7W16am-1" vertex="1">
          <mxGeometry x="280" y="50" width="360" height="20" as="geometry" />
        </mxCell>
        <mxCell id="aQ876fvYmltKhp7W16am-40" value="Tensor / Bucket" style="rounded=0;whiteSpace=wrap;html=1;strokeWidth=0;dashed=1;container=0;" parent="aQ876fvYmltKhp7W16am-1" vertex="1">
          <mxGeometry x="280" y="100" width="360" height="20" as="geometry" />
        </mxCell>
        <mxCell id="aQ876fvYmltKhp7W16am-41" value="ReduceScater" style="rounded=0;whiteSpace=wrap;html=1;strokeWidth=0;container=0;" parent="aQ876fvYmltKhp7W16am-1" vertex="1">
          <mxGeometry x="280" y="150" width="90" height="20" as="geometry" />
        </mxCell>
        <mxCell id="aQ876fvYmltKhp7W16am-42" value="AllReduce" style="rounded=0;whiteSpace=wrap;html=1;strokeWidth=0;container=0;" parent="aQ876fvYmltKhp7W16am-1" vertex="1">
          <mxGeometry x="377.5" y="150" width="60" height="20" as="geometry" />
        </mxCell>
        <mxCell id="aQ876fvYmltKhp7W16am-43" value="AllGather" style="rounded=0;whiteSpace=wrap;html=1;strokeWidth=0;container=0;" parent="aQ876fvYmltKhp7W16am-1" vertex="1">
          <mxGeometry x="450" y="150" width="62.5" height="20" as="geometry" />
        </mxCell>
        <mxCell id="aQ876fvYmltKhp7W16am-44" value="All2All" style="rounded=0;whiteSpace=wrap;html=1;strokeWidth=0;container=0;" parent="aQ876fvYmltKhp7W16am-1" vertex="1">
          <mxGeometry x="520" y="150" width="62.5" height="20" as="geometry" />
        </mxCell>
        <mxCell id="aQ876fvYmltKhp7W16am-45" value="P2P" style="rounded=0;whiteSpace=wrap;html=1;strokeWidth=0;container=0;" parent="aQ876fvYmltKhp7W16am-1" vertex="1">
          <mxGeometry x="587.5" y="150" width="52.5" height="20" as="geometry" />
        </mxCell>
        <mxCell id="aQ876fvYmltKhp7W16am-46" value="" style="edgeStyle=orthogonalEdgeStyle;rounded=1;orthogonalLoop=1;jettySize=auto;html=1;curved=0;exitX=0.5;exitY=1;exitDx=0;exitDy=0;" parent="aQ876fvYmltKhp7W16am-1" source="aQ876fvYmltKhp7W16am-40" edge="1">
          <mxGeometry relative="1" as="geometry">
            <mxPoint x="460" y="130" as="sourcePoint" />
            <mxPoint x="460" y="150" as="targetPoint" />
          </mxGeometry>
        </mxCell>
        <mxCell id="aQ876fvYmltKhp7W16am-47" value="Hardware&amp;nbsp;" style="text;html=1;align=center;verticalAlign=middle;whiteSpace=wrap;rounded=0;fillColor=default;strokeWidth=0.5;container=0;" parent="aQ876fvYmltKhp7W16am-1" vertex="1">
          <mxGeometry x="27.5" y="280" width="140" height="10" as="geometry" />
        </mxCell>
        <mxCell id="aQ876fvYmltKhp7W16am-48" value="" style="rounded=0;whiteSpace=wrap;html=1;container=0;" parent="aQ876fvYmltKhp7W16am-1" vertex="1">
          <mxGeometry x="255" y="210" width="410" height="90" as="geometry" />
        </mxCell>
        <mxCell id="aQ876fvYmltKhp7W16am-49" value="MPI" style="rounded=0;whiteSpace=wrap;html=1;strokeWidth=0;fillColor=#D5E8D4;container=0;" parent="aQ876fvYmltKhp7W16am-1" vertex="1">
          <mxGeometry x="280" y="220" width="80" height="20" as="geometry" />
        </mxCell>
        <mxCell id="aQ876fvYmltKhp7W16am-50" value="Ring" style="rounded=0;whiteSpace=wrap;html=1;strokeWidth=0;fillColor=#FFFFCC;strokeColor=#FFE599;container=0;" parent="aQ876fvYmltKhp7W16am-1" vertex="1">
          <mxGeometry x="280" y="260" width="110" height="20" as="geometry" />
        </mxCell>
        <mxCell id="aQ876fvYmltKhp7W16am-51" value="GLOO" style="rounded=0;whiteSpace=wrap;html=1;strokeWidth=0;fillColor=#B9E0A5;container=0;" parent="aQ876fvYmltKhp7W16am-1" vertex="1">
          <mxGeometry x="377.5" y="220" width="80" height="20" as="geometry" />
        </mxCell>
        <mxCell id="aQ876fvYmltKhp7W16am-52" value="TCCL" style="rounded=0;whiteSpace=wrap;html=1;strokeWidth=0;fillColor=#99FF99;container=0;" parent="aQ876fvYmltKhp7W16am-1" vertex="1">
          <mxGeometry x="480" y="220" width="80" height="20" as="geometry" />
        </mxCell>
        <mxCell id="aQ876fvYmltKhp7W16am-53" value="NCCL" style="rounded=0;whiteSpace=wrap;html=1;strokeWidth=0;fillColor=#99FFCC;container=0;" parent="aQ876fvYmltKhp7W16am-1" vertex="1">
          <mxGeometry x="573.75" y="220" width="80" height="20" as="geometry" />
        </mxCell>
        <mxCell id="aQ876fvYmltKhp7W16am-54" value="Torus" style="rounded=0;whiteSpace=wrap;html=1;strokeWidth=0;fillColor=#FFFF99;container=0;" parent="aQ876fvYmltKhp7W16am-1" vertex="1">
          <mxGeometry x="405" y="260" width="110" height="20" as="geometry" />
        </mxCell>
        <mxCell id="aQ876fvYmltKhp7W16am-55" value="Fat-Tree" style="rounded=0;whiteSpace=wrap;html=1;strokeWidth=0;fillColor=#FFFF33;container=0;" parent="aQ876fvYmltKhp7W16am-1" vertex="1">
          <mxGeometry x="530" y="260" width="110" height="20" as="geometry" />
        </mxCell>
        <mxCell id="aQ876fvYmltKhp7W16am-56" value="" style="rounded=0;whiteSpace=wrap;html=1;container=0;" parent="aQ876fvYmltKhp7W16am-1" vertex="1">
          <mxGeometry x="255" y="310" width="410" height="100" as="geometry" />
        </mxCell>
        <mxCell id="aQ876fvYmltKhp7W16am-57" value="RDMA" style="rounded=0;whiteSpace=wrap;html=1;strokeWidth=0;container=0;" parent="aQ876fvYmltKhp7W16am-1" vertex="1">
          <mxGeometry x="280" y="330" width="60" height="20" as="geometry" />
        </mxCell>
        <mxCell id="aQ876fvYmltKhp7W16am-58" value="CPU" style="rounded=0;whiteSpace=wrap;html=1;strokeWidth=0;container=0;" parent="aQ876fvYmltKhp7W16am-1" vertex="1">
          <mxGeometry x="280" y="370" width="90" height="20" as="geometry" />
        </mxCell>
        <mxCell id="aQ876fvYmltKhp7W16am-59" value="NVLINK" style="rounded=0;whiteSpace=wrap;html=1;strokeWidth=0;container=0;" parent="aQ876fvYmltKhp7W16am-1" vertex="1">
          <mxGeometry x="352.5" y="330" width="52.5" height="20" as="geometry" />
        </mxCell>
        <mxCell id="aQ876fvYmltKhp7W16am-60" value="CXL" style="rounded=0;whiteSpace=wrap;html=1;strokeWidth=0;container=0;" parent="aQ876fvYmltKhp7W16am-1" vertex="1">
          <mxGeometry x="483.75" y="330" width="46.25" height="20" as="geometry" />
        </mxCell>
        <mxCell id="aQ876fvYmltKhp7W16am-61" value="GPU/TPU/NPU" style="rounded=0;whiteSpace=wrap;html=1;strokeWidth=0;container=0;" parent="aQ876fvYmltKhp7W16am-1" vertex="1">
          <mxGeometry x="380" y="370" width="135" height="20" as="geometry" />
        </mxCell>
        <mxCell id="aQ876fvYmltKhp7W16am-62" value="FPGA" style="rounded=0;whiteSpace=wrap;html=1;strokeWidth=0;container=0;" parent="aQ876fvYmltKhp7W16am-1" vertex="1">
          <mxGeometry x="530" y="370" width="110" height="20" as="geometry" />
        </mxCell>
        <mxCell id="aQ876fvYmltKhp7W16am-63" value="RoCE" style="rounded=0;whiteSpace=wrap;html=1;strokeWidth=0;container=0;" parent="aQ876fvYmltKhp7W16am-1" vertex="1">
          <mxGeometry x="420" y="330" width="50" height="20" as="geometry" />
        </mxCell>
        <mxCell id="aQ876fvYmltKhp7W16am-64" value="PCIe" style="rounded=0;whiteSpace=wrap;html=1;strokeWidth=0;container=0;" parent="aQ876fvYmltKhp7W16am-1" vertex="1">
          <mxGeometry x="541.25" y="330" width="46.25" height="20" as="geometry" />
        </mxCell>
        <mxCell id="aQ876fvYmltKhp7W16am-65" value="SHMEM" style="rounded=0;whiteSpace=wrap;html=1;strokeWidth=0;container=0;" parent="aQ876fvYmltKhp7W16am-1" vertex="1">
          <mxGeometry x="600" y="330" width="46.25" height="20" as="geometry" />
        </mxCell>
        <mxCell id="aQ876fvYmltKhp7W16am-66" value="User/API" style="text;html=1;align=center;verticalAlign=middle;whiteSpace=wrap;rounded=0;container=0;" parent="aQ876fvYmltKhp7W16am-1" vertex="1">
          <mxGeometry x="680" y="10" width="70" height="20" as="geometry" />
        </mxCell>
        <mxCell id="aQ876fvYmltKhp7W16am-67" value="FrameWork" style="text;html=1;align=center;verticalAlign=middle;whiteSpace=wrap;rounded=0;container=0;" parent="aQ876fvYmltKhp7W16am-1" vertex="1">
          <mxGeometry x="680" y="50" width="70" height="20" as="geometry" />
        </mxCell>
        <mxCell id="aQ876fvYmltKhp7W16am-68" value="Message" style="text;html=1;align=center;verticalAlign=middle;whiteSpace=wrap;rounded=0;container=0;" parent="aQ876fvYmltKhp7W16am-1" vertex="1">
          <mxGeometry x="680" y="100" width="70" height="20" as="geometry" />
        </mxCell>
        <mxCell id="aQ876fvYmltKhp7W16am-69" value="Collective" style="text;html=1;align=center;verticalAlign=middle;whiteSpace=wrap;rounded=0;container=0;" parent="aQ876fvYmltKhp7W16am-1" vertex="1">
          <mxGeometry x="680" y="150" width="70" height="20" as="geometry" />
        </mxCell>
        <mxCell id="aQ876fvYmltKhp7W16am-70" value="DataTransfer" style="text;html=1;align=center;verticalAlign=middle;whiteSpace=wrap;rounded=0;container=0;" parent="aQ876fvYmltKhp7W16am-1" vertex="1">
          <mxGeometry x="680" y="220" width="70" height="20" as="geometry" />
        </mxCell>
        <mxCell id="aQ876fvYmltKhp7W16am-71" value="Topology" style="text;html=1;align=center;verticalAlign=middle;whiteSpace=wrap;rounded=0;container=0;" parent="aQ876fvYmltKhp7W16am-1" vertex="1">
          <mxGeometry x="680" y="260" width="70" height="20" as="geometry" />
        </mxCell>
        <mxCell id="aQ876fvYmltKhp7W16am-72" value="Link" style="text;html=1;align=center;verticalAlign=middle;whiteSpace=wrap;rounded=0;container=0;" parent="aQ876fvYmltKhp7W16am-1" vertex="1">
          <mxGeometry x="680" y="330" width="70" height="20" as="geometry" />
        </mxCell>
        <mxCell id="aQ876fvYmltKhp7W16am-73" value="Physical" style="text;html=1;align=center;verticalAlign=middle;whiteSpace=wrap;rounded=0;container=0;" parent="aQ876fvYmltKhp7W16am-1" vertex="1">
          <mxGeometry x="680" y="370" width="70" height="20" as="geometry" />
        </mxCell>
      </root>
    </mxGraphModel>
  </diagram>
</mxfile>
